<?xml version="1.0" encoding="UTF-8" standalone="no"?>
<!-- Created with Inkscape (http://www.inkscape.org/) -->

<svg
   width="100mm"
   height="100mm"
   viewBox="0 0 100 100"
   version="1.1"
   id="svg1"
   xml:space="preserve"
   xmlns:inkscape="http://www.inkscape.org/namespaces/inkscape"
   xmlns:sodipodi="http://sodipodi.sourceforge.net/DTD/sodipodi-0.dtd"
   xmlns="http://www.w3.org/2000/svg"
   xmlns:svg="http://www.w3.org/2000/svg"><sodipodi:namedview
     id="namedview1"
     pagecolor="#505050"
     bordercolor="#eeeeee"
     borderopacity="1"
     inkscape:showpageshadow="0"
     inkscape:pageopacity="0"
     inkscape:pagecheckerboard="0"
     inkscape:deskcolor="#505050"
     inkscape:document-units="mm" /><defs
     id="defs1" /><g
     inkscape:label="Capa 1"
     inkscape:groupmode="layer"
     id="layer1"><rect
       style="fill:none;fill-opacity:1;stroke-width:0;stroke-linecap:round"
       id="rect6"
       width="100"
       height="100"
       x="0"
       y="0"
       inkscape:export-filename="icon.svg"
       inkscape:export-xdpi="141.74442"
       inkscape:export-ydpi="141.74442" /><g
       id="g6"
       transform="translate(-8.4984581,-16.582351)"><g
         id="g2"
         transform="matrix(0.84527204,-0.30640045,0.30640045,0.84527204,-44.467459,20.150731)"><circle
           style="fill:#39719c;fill-opacity:1;stroke-width:0;stroke-linecap:round"
           id="path1"
           cx="68.404984"
           cy="126.85516"
           r="6.8496308" /><path
           style="fill:#39719c;fill-opacity:1;stroke-width:0;stroke-linecap:round"
           d="m 61.543728,126.15496 c 0,0 -0.968682,7.45886 6.10271,10.33263 7.071394,2.87376 12.310572,0.52263 15.208342,-3.48727 2.152292,-2.97831 2.48629,-6.84536 2.001946,-9.94515 -0.484341,-3.09979 -10.637805,-60.397861 -10.637805,-60.397861 0,0 -3.866014,-12.28034 6.023196,-25.094379 1.18727,-0.6393 4.321527,15.40322 -5.432935,24.81345 -11.852007,11.433752 -25.757824,24.353943 -23.135297,37.77399 2.270099,11.61659 13.009197,18.82529 25.870697,16.63302 21.753924,-3.708 18.708938,-21.925591 17.385796,-26.582972 -1.586377,-5.583954 -7.891453,-15.616682 -19.395094,-15.073924 -16.020989,0.755893 -23.901181,8.020895 -13.342431,28.976386 0,0 4.181198,-15.70447 17.354193,-15.696976 9.479833,0.0054 10.228782,9.954796 10.228782,9.954796 0,0 -2.824891,7.03212 -10.4581,8.93127 -6.635053,1.65081 -13.175474,1.48524 -17.974734,-6.34473 -3.828096,-6.245522 3.87718,-17.897903 11.30285,-24.59766 C 86.13022,64.183402 88.503636,59.914095 89.549191,50.798009 90.38578,43.503879 88.465222,36.787316 86.249664,32.187594 c -0.456642,-1.369925 -3.074815,-8.027931 -9.356025,-1.839055 -5.129662,5.054256 -12.441612,11.724829 -11.631525,32.41305 0.784204,20.027235 11.225994,65.162601 11.225994,65.162601 0,0 -0.05656,2.23758 -2.240322,2.48885 -2.489637,0.28646 -2.39479,-0.62181 -2.39479,-0.62181 z"
           id="path2"
           sodipodi:nodetypes="csssccssssscscsssscsscscc" /></g><g
         id="g4"
         transform="rotate(17.621583,192.80918,-189.97485)"><g
           id="g5"
           transform="translate(0.69634386,-0.22118202)"><ellipse
             style="fill:#ffcd3b;fill-opacity:1;stroke-width:0;stroke-linecap:round"
             id="path3"
             cx="75.543503"
             cy="157.90825"
             rx="14.475554"
             ry="13.059963"
             transform="rotate(-25.144936)" /><path
             style="fill:#ffcd3b;fill-opacity:1;stroke-width:0;stroke-linecap:round"
             d="M 142.88869,103.63583 V 45.191884 h 6.84536 c 0,0 1.65422,7.27629 7.5449,11.20341 5.89068,3.927123 15.02352,16.48478 14.65821,25.160978 -0.36532,8.676201 -0.13699,11.50738 -8.26522,20.868548 -0.77629,0.59363 -1.88365,0.39956 -1.58683,-0.86762 0.29681,-1.26718 4.46367,-8.767532 2.68277,-17.306739 -1.78091,-8.539208 -8.40222,-17.032748 -15.02353,-18.402676 l -0.028,44.104385 z"
             id="path4"
             sodipodi:nodetypes="cccsscssccc" /></g></g></g></g></svg>
